<svg xmlns="http://www.w3.org/2000/svg" xmlns:xlink="http://www.w3.org/1999/xlink" viewBox="0 0 92.29 92.29"><defs><linearGradient id="a" x1="7.76" y1="84.33" x2="83.32" y2="5.41" gradientUnits="userSpaceOnUse"><stop offset="0" stop-color="#1c92b7"/><stop offset="1" stop-color="#50b2d8"/></linearGradient><linearGradient id="b" x1="81.83" y1="12.42" x2="10.63" y2="81.45" xlink:href="#a"/><linearGradient id="c" x1="15.93" y1="56.54" x2="-.99" y2="75.53" xlink:href="#a"/><linearGradient id="d" x1="9.33" y1="85.83" x2="84.89" y2="6.91" xlink:href="#a"/><linearGradient id="e" x1="81.01" y1="11.57" x2="9.8" y2="80.6" xlink:href="#a"/><linearGradient id="f" x1="52.49" y1="7.96" x2="67.62" y2="21.21" xlink:href="#a"/><linearGradient id="g" x1="9.77" y1="8.51" x2="60.15" y2="82.1" xlink:href="#a"/><linearGradient id="h" x1="83.85" y1="59.38" x2="24.71" y2="24.97" xlink:href="#a"/><linearGradient id="i" x1="19.9" y1="21.41" x2="4.97" y2="21.5" xlink:href="#a"/><linearGradient id="j" x1="51.28" y1="73.27" x2="126.58" y2="76.83" xlink:href="#a"/><linearGradient id="k" x1="73.57" y1="77.04" x2="14.43" y2="42.63" xlink:href="#a"/><linearGradient id="l" x1="92.07" y1="86.32" x2="62" y2="71.88" gradientUnits="userSpaceOnUse"><stop offset="0" stop-color="#1c92b7"/><stop offset=".26" stop-color="#50b2d8"/></linearGradient></defs><g data-name="Слой 2"><g data-name="Слой 1"><path d="M92.29 45.91A46.17 46.17 0 0 1 37 91.38 3.46 3.46 0 0 1 34.25 88 3.27 3.27 0 0 0 31 84.72h-9.2a3.24 3.24 0 0 1-1.8-.57A46.4 46.4 0 0 1 7.84 71.88a3.71 3.71 0 0 1-.63-2.07v-9.92a4 4 0 0 0-4-4 2.62 2.62 0 0 1-2.58-2.2 46.15 46.15 0 1 1 91.67-7.77z" fill="#333"/><path d="M38.43 9.45c.12-.38.23-.74.31-1A35.19 35.19 0 0 1 43 .11C44.05 0 45.09 0 46.14 0h1a31.9 31.9 0 0 0-5.34 9.51c-.07.2-.18.54-.29.9a1.64 1.64 0 1 1-3.12-1zm53.85 35.72a32.09 32.09 0 0 1-47.6-8.24l1.58-.86a.72.72 0 0 0-.05-1.29l-5.1-2.29a.72.72 0 0 0-1 .55l-.82 5.53a.72.72 0 0 0 1.06.74l1.47-.8a35.32 35.32 0 0 0 50.36 10.78c.07-1 .11-2.09.11-3.14 0-.33-.01-.66-.01-.98zm-43 39.33a1.64 1.64 0 0 0-2 1.06l-.3.9a32 32 0 0 1-2.8 5.79h3.76A35.47 35.47 0 0 0 50 87.52c.08-.22.2-.57.32-1a1.64 1.64 0 0 0-1.06-2.02zM48.89 63l.87-5.52a.72.72 0 0 0-1.05-.75l-1.47.79A35.32 35.32 0 0 0 0 44.36v3.73A32.1 32.1 0 0 1 44.35 59l-1.58.85a.72.72 0 0 0 0 1.29l5.08 2.34a.72.72 0 0 0 1.04-.48zM50 65.88a1.58 1.58 0 1 0 1.05 2 1.58 1.58 0 0 0-1.05-2zm-.74 6.19a1.58 1.58 0 1 0 2-.92 1.58 1.58 0 0 0-1.98.92zm2.16 3.48a1.58 1.58 0 1 0 .92 2 1.58 1.58 0 0 0-.9-2zm-.5 4.6a1.58 1.58 0 1 0 .92 2 1.58 1.58 0 0 0-.91-2zm-12-50a1.58 1.58 0 1 0-1.07-2 1.58 1.58 0 0 0 1.1 1.98zm.68-6.2a1.58 1.58 0 1 0-2 .94 1.58 1.58 0 0 0 2.03-.96zm-2.19-3.46a1.58 1.58 0 1 0-.94-2 1.58 1.58 0 0 0 .97 1.98zm.46-4.6a1.58 1.58 0 1 0-.94-2 1.58 1.58 0 0 0 .97 1.97z" fill="#ccc"/><path d="M37.27 91.43A45.89 45.89 0 0 1 19.78 84 9.06 9.06 0 1 0 8.26 72.49a45.89 45.89 0 0 1-7.67-19 3.94 3.94 0 0 1 1.57.74l1.34 1a24.35 24.35 0 0 1 3.79-2l-.16-1.59a4 4 0 0 1 7.6-1.89l.64 1.56a24 24 0 0 1 4.31.13l.64-1.44a4 4 0 0 1 7.53 2.16l-.23 1.68a24 24 0 0 1 3.67 2.26l1.29-.93A4 4 0 0 1 38 60.78l-1 1.34a24.32 24.32 0 0 1 2 3.79l1.59-.16a4 4 0 0 1 1.89 7.6L41 74a24 24 0 0 1-.13 4.31l1.46.65a4 4 0 0 1-2.16 7.53l-1.68-.23a24.08 24.08 0 0 1-2.26 3.67l.93 1.29z" fill="url(#a)"/><path d="M25.5 78.07a9.06 9.06 0 0 0-17.24-5.58 46.11 46.11 0 0 1-4-6.89A15.93 15.93 0 1 1 26.66 88a46 46 0 0 1-6.88-4 9 9 0 0 0 5.72-5.93z" fill="url(#b)"/><path d="M7 70.59a46.15 46.15 0 0 1-2.72-5 16 16 0 0 1 12.34-6.09 15.9 15.9 0 0 0-9.38 10.22c-.08.28-.16.58-.24.87z" fill="url(#c)"/><path d="M51.4.3a4 4 0 0 0 .21 4.38L52.55 6a24 24 0 0 0-2.22 3.69l-1.68-.22A4 4 0 0 0 46.56 17l1.46.64a23.93 23.93 0 0 0-.09 4.31l-1.56.65a4 4 0 0 0 2 7.59l1.56-.19A24.23 24.23 0 0 0 52 33.77l-1 1.35a4 4 0 0 0 5.49 5.59l1.28-.95A24 24 0 0 0 61.45 42l-.22 1.68a4 4 0 0 0 7.55 2.09l.64-1.46a24 24 0 0 0 4.31.09l.65 1.56A4 4 0 0 0 82 44l-.18-1.59a24.34 24.34 0 0 0 3.77-2.08l1.35 1a4 4 0 0 0 5.1-.25A46.16 46.16 0 0 0 51.4.3zm29.35 22.5a9.06 9.06 0 1 1-6.15-11.25 9.06 9.06 0 0 1 6.15 11.25z" fill="url(#d)"/><path d="M67.21 5.08a15.93 15.93 0 1 0 20 20 46.34 46.34 0 0 0-20-20zm11.4 17.09A6.83 6.83 0 1 1 74 13.7a6.83 6.83 0 0 1 4.61 8.47z" fill="url(#e)"/><path d="M74 36.06a15.93 15.93 0 0 1-6.84-31q.86.44 1.7.92A15.93 15.93 0 0 0 74 36.06z" fill="url(#f)"/><path d="M31.48 21.42a12.69 12.69 0 0 0-.2-2.29l.79-.43a2.11 2.11 0 0 0-1.48-3.9l-.83.19a12.91 12.91 0 0 0-1.32-1.88l.47-.77a2.11 2.11 0 0 0-3.23-2.64l-.62.57A12.77 12.77 0 0 0 23 9.3v-.9a2.11 2.11 0 0 0-4.12-.67l-.25.81a12.75 12.75 0 0 0-2.29.2L15.89 8A2.11 2.11 0 0 0 12 9.43l.19.83a12.94 12.94 0 0 0-1.88 1.32l-.77-.47a2.11 2.11 0 0 0-2.64 3.23l.57.63a12.76 12.76 0 0 0-1 2.08h-.9a2.11 2.11 0 0 0-.67 4.12l.81.25a12.75 12.75 0 0 0 .2 2.29l-.79.43A2.11 2.11 0 0 0 6.62 28l.83-.19a12.91 12.91 0 0 0 1.32 1.88l-.47.77a2.11 2.11 0 0 0 3.23 2.64l.63-.57a12.79 12.79 0 0 0 2.08 1v.9a2.11 2.11 0 0 0 4.12.67l.25-.81a12.76 12.76 0 0 0 2.29-.2l.43.79a2.11 2.11 0 0 0 3.9-1.48l-.23-.84a13 13 0 0 0 1.88-1.32l.77.47a2.11 2.11 0 0 0 2.64-3.23l-.57-.62a12.77 12.77 0 0 0 1-2.08h.9a2.11 2.11 0 0 0 .67-4.12zm-8.12.84a4.83 4.83 0 1 1-3.91-5.6 4.83 4.83 0 0 1 3.9 5.6z" fill="url(#g)"/><path d="M20.18 12.57A9 9 0 1 0 27.45 23a9 9 0 0 0-7.27-10.43zm4.49 9.92a6.15 6.15 0 1 1-5-7.14 6.15 6.15 0 0 1 4.99 7.14z" fill="url(#h)"/><path d="M20 30.28a9 9 0 1 1 0-17.74 9 9 0 0 0-7.42 7.29 9.15 9.15 0 0 0-.14 1.41v.34a9 9 0 0 0 7.41 8.66z" fill="url(#i)"/><path d="M81.52 75.77a6.26 6.26 0 1 0-9 8.26 46 46 0 0 1-9.57 5.11 16.84 16.84 0 0 1-1.26-1.87l-1.08.24a2.73 2.73 0 0 1-1.91-5.06l1-.56a16.57 16.57 0 0 1-.26-3l-1.05-.33a2.73 2.73 0 0 1 .87-5.34h1.17a16.69 16.69 0 0 1 1.25-2.7l-.74-.81a2.73 2.73 0 0 1 3.43-4.19l1 .61a16.84 16.84 0 0 1 2.43-1.71l-.24-1.08a2.73 2.73 0 0 1 5.06-1.91l.56 1a16.57 16.57 0 0 1 3-.26l.33-1.05a2.73 2.73 0 0 1 5.34.87v1.17a16.6 16.6 0 0 1 2.7 1.25l.81-.74a2.73 2.73 0 0 1 3.57-.11 46.12 46.12 0 0 1-7.41 12.21z" fill="url(#j)"/><path d="M84.39 72a46.5 46.5 0 0 1-2.87 3.81 6.26 6.26 0 1 0-9 8.26 46.24 46.24 0 0 1-4 2.47A10.81 10.81 0 1 1 84.39 72z" fill="url(#k)"/><path d="M70.49 85.34q-1 .6-2 1.16a10.81 10.81 0 0 1 8.71-18.79 10.81 10.81 0 0 0-6.75 17.63z" fill="url(#l)"/></g></g></svg>