<svg xmlns="http://www.w3.org/2000/svg" xmlns:xlink="http://www.w3.org/1999/xlink" viewBox="0 0 91.21 91.21"><defs><style>.cls-2{fill:#ccc}.cls-5{fill:#4c4c4c}</style><linearGradient id="Безымянный_градиент_11" x1="53.09" y1="22.75" x2="82.42" y2="22.75" gradientUnits="userSpaceOnUse"><stop offset="0" stop-color="#1c92b7"/><stop offset="1" stop-color="#50b2d8"/></linearGradient><linearGradient id="Безымянный_градиент_11-2" x1="62.78" y1="57.29" x2="82.42" y2="57.29" xlink:href="#Безымянный_градиент_11"/><linearGradient id="Безымянный_градиент_11-3" x1="13.7" y1="37.48" x2="45.6" y2="37.48" xlink:href="#Безымянный_градиент_11"/></defs><g id="Слой_2" data-name="Слой 2"><g id="Слой_1-2" data-name="Слой 1"><circle cx="45.6" cy="45.6" r="45.6" fill="#333"/><path class="cls-2" d="M29.65 80.42l16-9.82L64 80.42l18.41-9.82V6.8L64 16.62 45.6 6.8l-18.4 9.82L8.79 6.8v63.81z"/><path d="M45.6 6.8l-18.4 9.82L8.79 6.8v57.83a51.37 51.37 0 0 0 10.43 1.07c25.41 0 46-18.4 46-41.11a37.05 37.05 0 0 0-.91-8.15l-.32.17z" fill="#a3a3a3"/><path class="cls-2" d="M27.2 52.2h4.91v8.59H27.2z"/><path d="M29.65 80.42a4.91 4.91 0 0 0 4.91-4.91V58.34h-9.82v17.18a4.91 4.91 0 0 0 4.91 4.9z" fill="#fff"/><circle class="cls-5" cx="60.33" cy="70.61" r="2.45"/><circle class="cls-5" cx="56.65" cy="59.56" r="3.68"/><path d="M64 16.62l-10.91-5.83 2.33 5.82 1.23 6.14-1.23 6.14 3.68 4.91 3.68 4.91L65.24 35l1.23-4.91h4.91l3.68 2.45 2.45-3.68 4.91-3.68V6.8z" fill="url(#Безымянный_градиент_11)"/><path d="M72.6 37.48v4.91l-4.91-1.23L64 43.61l-1.23 3.68v4.91l3.68 6.14h4.91l3.68 2.45-1.21 4.91v1.23l-4.91 1.23-1.23 3.68V78l.24.36 14.48-7.72V36.25l-4.9 2.45z" fill="url(#Безымянный_градиент_11-2)"/><circle cx="29.65" cy="37.48" r="15.95" fill="url(#Безымянный_градиент_11-3)"/><circle class="cls-2" cx="29.65" cy="37.48" r="11.04"/></g></g></svg>