<svg xmlns="http://www.w3.org/2000/svg" xmlns:xlink="http://www.w3.org/1999/xlink" viewBox="0 0 91.43 91.43"><defs><style>.cls-2{fill:#ccc}</style><linearGradient id="Безымянный_градиент_11" x1="66.46" y1="40.35" x2="20.97" y2="44.9" gradientUnits="userSpaceOnUse"><stop offset="0" stop-color="#1c92b7"/><stop offset="1" stop-color="#50b2d8"/></linearGradient><linearGradient id="Безымянный_градиент_11-2" x1="35.47" y1="53.66" x2="41.89" y2="60.58" xlink:href="#Безымянный_градиент_11"/><linearGradient id="Безымянный_градиент_11-3" x1="67.78" y1="53.5" x2="22.28" y2="58.05" xlink:href="#Безымянный_градиент_11"/><linearGradient id="Безымянный_градиент_11-4" x1="18.8" y1="62.64" x2="38.79" y2="62.64" xlink:href="#Безымянный_градиент_11"/><linearGradient id="Безымянный_градиент_11-5" x1="66.65" y1="42.25" x2="21.16" y2="46.8" xlink:href="#Безымянный_градиент_11"/><linearGradient id="Безымянный_градиент_11-6" x1="68.34" y1="55.61" x2="26.9" y2="18.62" xlink:href="#Безымянный_градиент_11"/><linearGradient id="Безымянный_градиент_11-7" x1="40.93" y1="21.08" x2="69.01" y2="47.98" xlink:href="#Безымянный_градиент_11"/></defs><g id="Слой_2" data-name="Слой 2"><g id="Слой_1-2" data-name="Слой 1"><path d="M78 78a45.72 45.72 0 1 1 0-64.65A45.72 45.72 0 0 1 78 78z" fill="#333"/><path class="cls-2" d="M72.24 71.71l-5.48.76a.72.72 0 0 1-.81-.81l.76-5.48a.71.71 0 0 1 1.21-.41L69.18 67A31.76 31.76 0 1 0 43.9 77.35h.94a1.62 1.62 0 0 1-.06 3.24h-1a35 35 0 1 1 27.7-11.26l1.17 1.17a.71.71 0 0 1-.41 1.21zm-9.5 1.1a1.56 1.56 0 1 0 1.56 1.56 1.56 1.56 0 0 0-1.56-1.56zm-4.52 2.64a1.56 1.56 0 1 0 1.46 1.66 1.56 1.56 0 0 0-1.46-1.66zm-4.14 1.38a1.56 1.56 0 1 0 1.46 1.66 1.56 1.56 0 0 0-1.46-1.65zm-4.5.84A1.56 1.56 0 1 0 51 79.34a1.56 1.56 0 0 0-1.43-1.66z"/><path d="M40.76 35.39L18.63 57.52a1.79 1.79 0 0 1-2.53 0l-7.57-7.57a1.79 1.79 0 0 1 0-2.53l12-12a14.29 14.29 0 0 1 20.23-.03z" fill="url(#Безымянный_градиент_11)"/><path d="M56 70.87l-12 12a1.79 1.79 0 0 1-2.53 0l-7.58-7.58a1.79 1.79 0 0 1 0-2.53L56 50.67a14.29 14.29 0 0 1 0 20.2zM25.51 36.62L10.36 51.78l5.75 5.75a1.79 1.79 0 0 0 2.53 0l22.12-22.14a14.25 14.25 0 0 0-4.21-2.92 14.25 14.25 0 0 0-11.04 4.15z" fill="url(#Безымянный_градиент_11-2)"/><path d="M16.67 42.94l8.27 8.27-2.53 2.53-8.27-8.27zM23 36.62l8.27 8.27 2.53-2.53-8.29-8.26zm35.67 30.64l-9.61-9.61-2.53 2.53 10.09 10.08a14.23 14.23 0 0 0 2.05-3zm-18.45-.77L37.7 69l10.1 10.1 2.53-2.53z" fill="url(#Безымянный_градиент_11-3)"/><path d="M11.34 67.71L28.09 51a1 1 0 0 1 1.46 0l10.91 10.89a1 1 0 0 1 0 1.46L23.72 80.09c-3.94 3.94-11.33 6.12-16 3.63-2.49-4.72-.31-12.07 3.62-16.01z" fill="#ed1c24"/><path d="M14.13 68.37l12.09-12.1a.74.74 0 0 1 1.05 0l7.89 7.89a.74.74 0 0 1 0 1.05l-12.1 12.1c-2.84 2.84-8.18 4.42-11.56 2.62-1.79-3.38-.22-8.72 2.63-11.56z" fill="#f7931e"/><path d="M17.91 64.58L30 52.49a.74.74 0 0 1 1.05 0l7.89 7.89a.74.74 0 0 1 0 1.05L26.85 73.52c-2.85 2.84-8.18 4.42-11.55 2.62-1.8-3.38-.23-8.72 2.61-11.56z" fill="#ff0"/><path d="M33.22 72.11L19.33 58.22a1.79 1.79 0 0 1 0-2.53l2.53-2.53a1.79 1.79 0 0 1 2.53 0l13.88 13.9a1.79 1.79 0 0 1 0 2.53l-2.53 2.53a1.79 1.79 0 0 1-2.52-.01z" fill="url(#Безымянный_градиент_11-4)"/><path d="M69.24 43.66l-29 29a1.79 1.79 0 0 1-2.53 0l-18.98-18.9a1.79 1.79 0 0 1 0-2.53l29-29c6.83-6.83 19.65-10.61 27.76-6.29 4.36 8.06.58 20.89-6.25 27.72z" fill="url(#Безымянный_градиент_11-5)"/><path d="M69.24 43.66l-29 29a1.79 1.79 0 0 1-2.53 0l-16.58-16.5 30.3-30.3c6.14-6.14 17.12-9.86 25.16-7.36 2.46 8.04-1.21 19.02-7.35 25.16z" fill="url(#Безымянный_градиент_11-6)"/><path d="M64.16 43.69a11.61 11.61 0 1 1 0-16.42 11.61 11.61 0 0 1 0 16.42z" fill="url(#Безымянный_градиент_11-7)"/><path class="cls-2" d="M61.64 41.16a8 8 0 1 1 0-11.36 8 8 0 0 1 0 11.36z"/><path d="M61.64 41.16a8 8 0 0 1-8.87 1.69 8 8 0 0 1 10.56-10.56 8 8 0 0 1-1.69 8.87z" fill="#a3a3a3"/></g></g></svg>