<svg xmlns="http://www.w3.org/2000/svg" xmlns:xlink="http://www.w3.org/1999/xlink" viewBox="0 0 91.45 95.3"><defs><style>.cls-4{fill:#fff}.cls-6{fill:#ccc}</style><linearGradient id="Безымянный_градиент_11" x1="8.35" y1="49.7" x2="82.86" y2="49.7" gradientUnits="userSpaceOnUse"><stop offset="0" stop-color="#1c92b7"/><stop offset="1" stop-color="#50b2d8"/></linearGradient><linearGradient id="Безымянный_градиент_11-2" x1="52.61" y1="41.06" x2="44.43" y2="46.86" xlink:href="#Безымянный_градиент_11"/><linearGradient id="Безымянный_градиент_11-3" x1="40.22" y1="39.13" x2="62.88" y2="39.13" xlink:href="#Безымянный_градиент_11"/><linearGradient id="Безымянный_градиент_11-4" x1="27.84" y1="55.42" x2="51.92" y2="55.42" xlink:href="#Безымянный_градиент_11"/><linearGradient id="Безымянный_градиент_11-5" x1="41.55" y1="61.91" x2="49.66" y2="61.91" xlink:href="#Безымянный_градиент_11"/><linearGradient id="Безымянный_градиент_11-6" x1="40.48" y1="62.12" x2="44.81" y2="61.84" xlink:href="#Безымянный_градиент_11"/><linearGradient id="Безымянный_градиент_11-7" x1="63.36" y1="17.88" x2="83.5" y2="17.88" xlink:href="#Безымянный_градиент_11"/><linearGradient id="Безымянный_градиент_11-8" x1="68.37" y1="17.88" x2="78.49" y2="17.88" xlink:href="#Безымянный_градиент_11"/></defs><g id="Слой_2" data-name="Слой 2"><g id="Слой_1-2" data-name="Слой 1"><circle cx="45.6" cy="49.7" r="45.6" fill="#333"/><path d="M76.7 31.88v2.95a.56.56 0 0 1-.56.56h-5.41a.56.56 0 0 1-.56-.56v-2.95A1.77 1.77 0 0 0 69 30.3l-1.37-.56a1.61 1.61 0 0 0-.69-.15 1.76 1.76 0 0 0-1.22.47l-2.11 2.09a.57.57 0 0 1-.8 0L59 28.37a.55.55 0 0 1 0-.78l2.11-2.09a1.75 1.75 0 0 0 .33-1.91l-.56-1.35a1.78 1.78 0 0 0-1.58-1.12h-3a.56.56 0 0 1-.56-.56V15.2a.56.56 0 0 1 .56-.56h1.89a37.25 37.25 0 1 0 19.32 15.82 1.78 1.78 0 0 0-.81 1.42z" fill="url(#Безымянный_градиент_11)"/><path d="M11.52 49.7a37.25 37.25 0 0 1 35.67-37.22h-1.58a37.25 37.25 0 0 0 0 74.5h1.58A37.25 37.25 0 0 1 11.52 49.7z" fill="url(#Безымянный_градиент_11-2)"/><circle class="cls-4" cx="45.6" cy="49.7" r="29.81"/><circle cx="45.6" cy="49.7" r="19.85" fill="#d9eafc"/><path class="cls-6" d="M45.6 70.94A21.25 21.25 0 1 1 66.85 49.7 21.27 21.27 0 0 1 45.6 70.94zm0-39.7A18.45 18.45 0 1 0 64.06 49.7 18.48 18.48 0 0 0 45.6 31.24z"/><circle class="cls-4" cx="45.6" cy="49.7" r="3.99"/><path d="M61.48 48.3H50.81A5.41 5.41 0 0 0 47 44.5V24.57a1.4 1.4 0 1 0-2.79 0V44.5a5.39 5.39 0 1 0 6.6 6.6h10.67a1.4 1.4 0 0 0 0-2.79zm-15.88 4a2.6 2.6 0 1 1 2.6-2.6 2.6 2.6 0 0 1-2.6 2.59z" fill="url(#Безымянный_градиент_11-3)"/><path d="M29.23 67.47a1.4 1.4 0 0 1-1-2.38l21.3-21.3a1.4 1.4 0 0 1 2 2l-21.3 21.3a1.39 1.39 0 0 1-1 .38z" fill="url(#Безымянный_градиент_11-4)"/><path class="cls-6" d="M70.73 35.39a.56.56 0 0 1-.56-.56v-2.95A1.77 1.77 0 0 0 69 30.3l-1.37-.56a1.61 1.61 0 0 0-.69-.15 1.82 1.82 0 0 0-1 .31 28.61 28.61 0 0 1 3.51 4.4l-.43.25A1.4 1.4 0 1 0 70.44 37l.43-.25A28.21 28.21 0 0 1 74 48.3h-.51a1.4 1.4 0 0 0 0 2.79H74a28.21 28.21 0 0 1-3.11 11.58l-.43-.25A1.4 1.4 0 0 0 69 64.84l.43.25A28.64 28.64 0 0 1 61 73.57l-.25-.43a1.4 1.4 0 1 0-2.42 1.4l.25.43A28.21 28.21 0 0 1 47 78.08v-.51a1.4 1.4 0 0 0-2.79 0v.51A28.21 28.21 0 0 1 32.63 75l.25-.43a1.4 1.4 0 1 0-2.42-1.4l-.25.43a28.64 28.64 0 0 1-8.48-8.48l.43-.25a1.4 1.4 0 0 0-1.4-2.42l-.43.25a28.21 28.21 0 0 1-3.11-11.58h.51a1.4 1.4 0 1 0 0-2.79h-.51a28.21 28.21 0 0 1 3.11-11.58l.43.25a1.4 1.4 0 0 0 1.4-2.42l-.43-.25a28.64 28.64 0 0 1 8.48-8.48l.25.43a1.4 1.4 0 1 0 2.42-1.4l-.25-.43a28.38 28.38 0 0 1 26 0l-.25.43A1.4 1.4 0 0 0 59.54 27h.14l1.47-1.46a1.75 1.75 0 0 0 .33-1.91l-.41-1a31.12 31.12 0 0 0-2.95-1.49h-1.78a.56.56 0 0 1-.56-.56v-.38a31.23 31.23 0 1 0 17.55 15.19z"/><path d="M48.73 59.69h-6.25a.93.93 0 0 0-.93.93v2.56a.93.93 0 0 0 .93.93h6.25a.93.93 0 0 0 .93-.93v-2.56a.93.93 0 0 0-.93-.93z" fill="url(#Безымянный_градиент_11-5)"/><path d="M44.19 63.19v-2.56a.93.93 0 0 1 .93-.93h-2.64a.93.93 0 0 0-.93.93v2.56a.93.93 0 0 0 .93.93h2.64a.93.93 0 0 1-.93-.93z" fill="url(#Безымянный_градиент_11-6)"/><path d="M69.8 34.83a.93.93 0 0 0 .93.93h5.41a.93.93 0 0 0 .93-.93v-2.95a1.4 1.4 0 0 1 .88-1.23l1.39-.57a1.41 1.41 0 0 1 1.5.25l2.11 2.09a.94.94 0 0 0 1.32 0l3.82-3.79a.92.92 0 0 0 0-1.31L86 25.23a1.38 1.38 0 0 1-.25-1.49l.57-1.37a1.4 1.4 0 0 1 1.24-.88h3a.93.93 0 0 0 .93-.93V15.2a.93.93 0 0 0-.93-.93h-3a1.4 1.4 0 0 1-1.24-.88L85.73 12a1.38 1.38 0 0 1 .27-1.46l2.11-2.09a.92.92 0 0 0 0-1.31l-3.85-3.8a.94.94 0 0 0-1.32 0l-2.11 2.09a1.41 1.41 0 0 1-1.5.25l-1.39-.57a1.4 1.4 0 0 1-.88-1.23V.93a.93.93 0 0 0-.92-.93h-5.41a.93.93 0 0 0-.93.93v2.95a1.4 1.4 0 0 1-.88 1.23l-1.39.57A1.41 1.41 0 0 1 66 5.43l-2.08-2.09a.94.94 0 0 0-1.32 0l-3.82 3.79a.92.92 0 0 0 0 1.31l2.11 2.09a1.38 1.38 0 0 1 .25 1.47l-.57 1.37a1.4 1.4 0 0 1-1.24.88h-3a.93.93 0 0 0-.93.93v5.36a.93.93 0 0 0 .93.93h3a1.4 1.4 0 0 1 1.24.88l.57 1.37a1.38 1.38 0 0 1-.25 1.49l-2.11 2.09a.92.92 0 0 0 0 1.31l3.82 3.79a.94.94 0 0 0 1.32 0L66 30.33a1.41 1.41 0 0 1 1.5-.25l1.39.57a1.4 1.4 0 0 1 .88 1.23v2.95z" fill="#4c4c4c"/><ellipse class="cls-4" cx="73.43" cy="17.88" rx="8.67" ry="8.61"/><path d="M73.43 27.88a10 10 0 1 1 10.07-10 10 10 0 0 1-10.07 10zm0-17.21a7.21 7.21 0 1 0 7.28 7.21 7.25 7.25 0 0 0-7.28-7.21z" fill="url(#Безымянный_градиент_11-7)"/><ellipse class="cls-4" cx="73.43" cy="17.88" rx="3.67" ry="3.64"/><path d="M73.43 22.92a5 5 0 1 1 5.06-5 5.05 5.05 0 0 1-5.06 5zm0-7.28a2.24 2.24 0 1 0 2.27 2.24 2.26 2.26 0 0 0-2.27-2.24z" fill="url(#Безымянный_градиент_11-8)"/></g></g></svg>